<svg viewBox="0 0 15 15" fill="none" xmlns="http://www.w3.org/2000/svg">
<path d="M13.5 3.5H14V3.293L13.854 3.146L13.5 3.5ZM10.5 0.5L10.854 0.146L10.707 0H10.5V0.5ZM2 6V1.5H1V6H2ZM13 3.5V6H14V3.5H13ZM2.5 1H10.5V0H2.5V1ZM10.146 0.854L13.146 3.854L13.854 3.146L10.854 0.146L10.146 0.854ZM2 1.5C2 1.36739 2.05268 1.24021 2.14645 1.14645C2.24021 1.05268 2.36739 1 2.5 1V0C2.10218 0 1.72064 0.158035 1.43934 0.43934C1.15804 0.720644 1 1.10218 1 1.5H2ZM1 12V13.5H2V12H1ZM2.5 15H12.5V14H2.5V15ZM14 13.5V12H13V13.5H14ZM12.5 15C12.8978 15 13.2794 14.842 13.5607 14.5607C13.842 14.2794 14 13.8978 14 13.5H13C13 13.6326 12.9473 13.7598 12.8536 13.8536C12.7598 13.9473 12.6326 14 12.5 14V15ZM1 13.5C1 13.8978 1.15804 14.2794 1.43934 14.5607C1.72064 14.842 2.10218 15 2.5 15V14C2.36739 14 2.24021 13.9473 2.14645 13.8536C2.05268 13.7598 2 13.6326 2 13.5H1Z" fill="currentColor"/>
<path d="M2.16667 11C1.97778 11 1.81956 10.936 1.692 10.808C1.56444 10.68 1.50044 10.5218 1.5 10.3333V7.66667C1.5 7.47778 1.564 7.31956 1.692 7.192C1.82 7.06444 1.97822 7.00044 2.16667 7H4.16667C4.35555 7 4.514 7.064 4.642 7.192C4.77 7.32 4.83378 7.47822 4.83333 7.66667V8.01667C4.83333 8.15 4.78333 8.264 4.68333 8.35867C4.58333 8.45333 4.46667 8.50044 4.33333 8.5C4.18889 8.5 4.06955 8.45267 3.97533 8.358C3.88111 8.26333 3.83378 8.144 3.83333 8H2.5V10H3.83333C3.83333 9.86666 3.88067 9.75 3.97533 9.65C4.07 9.55 4.18933 9.5 4.33333 9.5C4.46667 9.5 4.58333 9.55 4.68333 9.65C4.78333 9.75 4.83333 9.86666 4.83333 10V10.3333C4.83333 10.5222 4.76933 10.6807 4.64133 10.8087C4.51333 10.9367 4.35511 11.0004 4.16667 11H2.16667Z" fill="currentColor"/>
<path d="M8.69444 7.5H6.86111C6.69903 7.5 6.5436 7.53951 6.42899 7.60984C6.31438 7.68016 6.25 7.77554 6.25 7.875V8.625C6.25 8.72446 6.31438 8.81984 6.42899 8.89016C6.5436 8.96049 6.69903 9 6.86111 9H8.08333C8.24541 9 8.40085 9.03951 8.51545 9.10984C8.63006 9.18016 8.69444 9.27554 8.69444 9.375V10.125C8.69444 10.2245 8.63006 10.3198 8.51545 10.3902C8.40085 10.4605 8.24541 10.5 8.08333 10.5H6.25" stroke="currentColor" stroke-linecap="round" stroke-linejoin="round"/>
<path d="M12.9444 7.5H11.1111C10.949 7.5 10.7936 7.53951 10.679 7.60984C10.5644 7.68016 10.5 7.77554 10.5 7.875V8.625C10.5 8.72446 10.5644 8.81984 10.679 8.89016C10.7936 8.96049 10.949 9 11.1111 9H12.3333C12.4954 9 12.6508 9.03951 12.7655 9.10984C12.8801 9.18016 12.9444 9.27554 12.9444 9.375V10.125C12.9444 10.2245 12.8801 10.3198 12.7655 10.3902C12.6508 10.4605 12.4954 10.5 12.3333 10.5H10.5" stroke="currentColor" stroke-linecap="round" stroke-linejoin="round"/>
</svg>
