<svg viewBox="0 0 15 15" fill="none" xmlns="http://www.w3.org/2000/svg">
<path d="M13.5 3.5H14V3.293L13.854 3.146L13.5 3.5ZM10.5 0.5L10.854 0.146L10.707 0H10.5V0.5ZM2 6V1.5H1V6H2ZM13 3.5V6H14V3.5H13ZM2.5 1H10.5V0H2.5V1ZM10.146 0.854L13.146 3.854L13.854 3.146L10.854 0.146L10.146 0.854ZM2 1.5C2 1.36739 2.05268 1.24021 2.14645 1.14645C2.24021 1.05268 2.36739 1 2.5 1V0C2.10218 0 1.72064 0.158035 1.43934 0.43934C1.15804 0.720644 1 1.10218 1 1.5H2ZM1 12V13.5H2V12H1ZM2.5 15H12.5V14H2.5V15ZM14 13.5V12H13V13.5H14ZM12.5 15C12.8978 15 13.2794 14.842 13.5607 14.5607C13.842 14.2794 14 13.8978 14 13.5H13C13 13.6326 12.9473 13.7598 12.8536 13.8536C12.7598 13.9473 12.6326 14 12.5 14V15ZM1 13.5C1 13.8978 1.15804 14.2794 1.43934 14.5607C1.72064 14.842 2.10218 15 2.5 15V14C2.36739 14 2.24021 13.9473 2.14645 13.8536C2.05268 13.7598 2 13.6326 2 13.5H1Z" fill="currentColor"/>
<path d="M13 7.5H11.7778C11.4536 7.5 11.1427 7.57902 10.9135 7.71967C10.6843 7.86032 10.5556 8.05109 10.5556 8.25V9.75C10.5556 9.94891 10.6843 10.1397 10.9135 10.2803C11.1427 10.421 11.4536 10.5 11.7778 10.5H13V9H12.3889M4.44444 7.5H2.61111C2.44903 7.5 2.2936 7.53951 2.17899 7.60984C2.06438 7.68016 2 7.77554 2 7.875V8.625C2 8.72446 2.06438 8.81984 2.17899 8.89016C2.2936 8.96049 2.44903 9 2.61111 9H3.83333C3.99541 9 4.15085 9.03951 4.26545 9.10984C4.38006 9.18016 4.44444 9.27554 4.44444 9.375V10.125C4.44444 10.2245 4.38006 10.3198 4.26545 10.3902C4.15085 10.4605 3.99541 10.5 3.83333 10.5H2M6.27778 7.5L7.19444 10.5H7.80556L8.72222 7.5" stroke="currentColor" stroke-linecap="round" stroke-linejoin="round"/>
</svg>
